<svg width="12" height="12" viewBox="0 0 12 12" fill="none" xmlns="http://www.w3.org/2000/svg">
<path d="M6.00002 10.81C5.92637 10.8098 5.85487 10.7852 5.79668 10.74C3.94335 9.3 2.66668 8.06 1.77335 6.83667C0.63335 5.27334 0.37335 3.83 1.00002 2.54667C1.44668 1.63 2.73002 0.880003 4.23002 1.31667C4.9452 1.52325 5.56918 1.96626 6.00002 2.57334C6.43086 1.96626 7.05484 1.52325 7.77002 1.31667C9.26668 0.88667 10.5534 1.63 11 2.54667C11.6267 3.83 11.3667 5.27334 10.2267 6.83667C9.33335 8.06 8.05668 9.3 6.20335 10.74C6.14517 10.7852 6.07367 10.8098 6.00002 10.81ZM3.37668 1.86C3.01977 1.84611 2.66581 1.92969 2.3528 2.10175C2.03979 2.27382 1.77955 2.52788 1.60002 2.83667C1.08335 3.89667 1.31668 5.07667 2.31335 6.44C3.37254 7.8062 4.61282 9.02181 6.00002 10.0533C7.38699 9.02283 8.62726 7.80835 9.68668 6.44334C10.6867 5.07667 10.9167 3.89667 10.4 2.84C10.0667 2.17334 9.06668 1.64334 7.95335 1.95667C7.59636 2.06217 7.26542 2.24124 6.98182 2.48236C6.69822 2.72348 6.46824 3.02131 6.30668 3.35667C6.28157 3.41781 6.23885 3.4701 6.18395 3.5069C6.12905 3.5437 6.06444 3.56335 5.99835 3.56335C5.93226 3.56335 5.86765 3.5437 5.81275 3.5069C5.75785 3.4701 5.71513 3.41781 5.69002 3.35667C5.52968 3.02047 5.30009 2.72195 5.01631 2.48068C4.73253 2.23941 4.40097 2.06084 4.04335 1.95667C3.82668 1.89374 3.60231 1.8612 3.37668 1.86Z" fill="black"/>
</svg>
