<svg width="45" height="30" viewBox="0 0 45 30" fill="none" xmlns="http://www.w3.org/2000/svg">
<path d="M22.38 26.0879C22.38 24.8882 23.3494 23.927 24.5588 23.927C25.7662 23.927 26.7338 24.8882 26.7338 26.0879C26.7347 26.372 26.6792 26.6536 26.5702 26.9163C26.4613 27.179 26.3012 27.4178 26.099 27.6188C25.8969 27.8198 25.6567 27.9791 25.3924 28.0876C25.1281 28.196 24.8447 28.2515 24.5588 28.2507C24.2726 28.2519 23.989 28.1969 23.7244 28.0888C23.4597 27.9807 23.2192 27.8216 23.0167 27.6208C22.8142 27.4199 22.6537 27.1812 22.5444 26.9185C22.4351 26.6557 22.3793 26.3741 22.38 26.0898V26.0879ZM31.2375 26.0898C31.2375 24.8882 32.2069 23.9251 33.4144 23.9251C34.6219 23.9251 35.5913 24.8882 35.5913 26.0879C35.5913 27.2876 34.6219 28.2507 33.4163 28.2507C33.1301 28.2519 32.8465 28.1969 32.5819 28.0888C32.3172 27.9807 32.0767 27.8216 31.8742 27.6208C31.6717 27.4199 31.5112 27.1812 31.4019 26.9185C31.2926 26.6557 31.2368 26.3741 31.2375 26.0898ZM10.7063 26.0898C10.7063 24.8882 11.6756 23.9251 12.8831 23.9251C14.0906 23.9251 15.0581 24.8882 15.0581 26.0879C15.0581 27.2876 14.0906 28.2507 12.8831 28.2507C12.5971 28.2517 12.3138 28.1965 12.0493 28.0883C11.7849 27.98 11.5446 27.8209 11.3423 27.6201C11.14 27.4193 10.9796 27.1807 10.8705 26.918C10.7613 26.6554 10.7055 26.3739 10.7063 26.0898ZM1.84875 26.0898C1.84875 24.8882 2.81813 23.9251 4.02563 23.9251C5.23313 23.9251 6.2025 24.8882 6.2025 26.0879C6.20349 26.3722 6.14786 26.6539 6.03881 26.9167C5.92977 27.1796 5.76946 27.4184 5.56712 27.6194C5.36478 27.8205 5.12441 27.9797 4.85985 28.0881C4.59529 28.1964 4.31177 28.2517 4.02563 28.2507C3.73979 28.2515 3.45663 28.1961 3.19241 28.0877C2.92819 27.9794 2.68813 27.8202 2.48601 27.6194C2.2839 27.4186 2.12372 27.1801 2.01468 26.9176C1.90563 26.6551 1.84988 26.3738 1.85063 26.0898H1.84875ZM19.7569 22.2671H17.8631V29.836H19.7569V22.2671ZM6.1875 29.836H8.08125V22.2671H6.1875V22.8744C5.52738 22.418 4.74174 22.1747 3.9375 22.1777C1.75875 22.1777 0 23.9251 0 26.0898C0 28.2656 1.75875 30 3.9375 30C4.77187 30 5.54625 29.7485 6.1875 29.3032V29.836ZM35.5763 29.836H37.47V22.2671H35.5763V22.8744C34.9161 22.418 34.1305 22.1747 33.3263 22.1777C31.1475 22.1777 29.3888 23.9251 29.3888 26.0898C29.387 26.6039 29.4877 27.1133 29.685 27.5886C29.8823 28.0639 30.1723 28.4957 30.5383 28.8592C30.9043 29.2227 31.339 29.5106 31.8175 29.7064C32.296 29.9022 32.8088 30.0019 33.3263 30C34.1606 30 34.935 29.7485 35.5763 29.3032V29.836ZM38.1712 27.377C38.2313 28.9046 39.5438 29.9851 41.7337 29.9851C43.5244 29.9851 45 29.2138 45 27.5112C45 26.3264 44.3288 25.6296 42.7781 25.3316L41.5706 25.0968C40.7944 24.9478 40.2581 24.7988 40.2581 24.3405C40.2581 23.8375 40.7794 23.614 41.4356 23.614C42.3919 23.614 42.7781 24.089 42.8081 24.6516H44.7169C44.6119 23.1706 43.4194 22.1777 41.4956 22.1777C39.5138 22.1777 38.3344 23.2582 38.3344 24.6665C38.3344 26.3841 39.7369 26.6654 40.9444 26.8889L41.9438 27.0659C42.66 27.2 42.9731 27.4068 42.9731 27.8223C42.9731 28.193 42.615 28.5618 41.7638 28.5618C40.5262 28.5618 40.125 27.9247 40.11 27.377H38.1712ZM15.045 19.6889V22.8744C14.3849 22.418 13.5992 22.1747 12.795 22.1777C10.6163 22.1777 8.8575 23.9251 8.8575 26.0898C8.8575 28.2656 10.6163 30 12.795 30C13.6275 30 14.4038 29.7485 15.045 29.3032V29.836H16.9388V19.6889H15.045ZM26.7188 19.6889V22.8744C26.0586 22.418 25.273 22.1747 24.4688 22.1777C22.2919 22.1777 20.5312 23.9251 20.5312 26.0898C20.5295 26.6039 20.6302 27.1133 20.8275 27.5886C21.0248 28.0639 21.3148 28.4957 21.6808 28.8592C22.0468 29.2227 22.4815 29.5106 22.96 29.7064C23.4385 29.9022 23.9513 30.0019 24.4688 30C25.3031 30 26.0775 29.7485 26.7188 29.3032V29.836H28.6125V19.6889H26.7188ZM4.92 17.4534L6.2025 19.6889H15.045L11.5406 13.6736L4.92188 17.4515L4.92 17.4534ZM19.7569 21.5704V19.6889H26.7188L19.2938 6.91877L12.6581 10.6967L17.8631 19.6889V21.5704H19.7569ZM29.5387 19.6889H38.3944L26.9438 0L20.3231 3.79284L29.5387 19.6889Z" fill="white"/>
</svg>
